<svg width="308" height="500" viewBox="0 0 308 500" fill="none" xmlns="http://www.w3.org/2000/svg">
<circle cx="153.485" cy="70.1281" r="41.4416" stroke="#FA9600" stroke-width="3"/>
<path d="M113.886 108.738C125.813 122.472 144.446 125.856 152.305 125.856C175.084 125.856 189.687 111.268 191.951 109.006C192.026 108.932 192.087 108.871 192.134 108.824C192.305 108.656 192.721 108.15 193.242 107.509C193.806 106.815 194.586 105.843 195.552 104.634C197.483 102.216 200.163 98.8396 203.344 94.8224C207.524 89.5434 212.574 83.1541 217.934 76.3718C220.731 72.8315 223.614 69.1842 226.501 65.5317C234.922 54.8809 243.387 44.1864 249.934 35.9719C253.207 31.8643 255.999 28.3796 258.064 25.8314C260.172 23.2305 261.442 21.7095 261.736 21.4204C263.092 20.0882 266.865 17.1864 271.68 15.7446C276.431 14.3218 282.112 14.3334 287.605 18.6047C296.327 25.3862 294.966 34.74 293.183 38.6499C270.433 71.921 223.061 140.881 214.749 151.766C204.367 165.362 204.475 179.888 204.496 182.689C204.497 182.792 204.498 182.88 204.498 182.951C204.498 183.589 204.551 212.939 204.622 252.478C204.66 273.512 204.703 297.431 204.746 321.444C204.871 390.6 204.995 460.545 204.995 464.693C204.995 468.49 203.379 473.667 200.147 477.88C196.943 482.056 192.253 485.166 186.111 485.166C174.144 485.166 167.497 480.496 163.742 475.674C160.062 470.947 159.057 465.941 158.774 464.529C158.764 464.481 158.755 464.438 158.747 464.398C158.759 464.453 158.744 464.357 158.722 463.924C158.704 463.553 158.683 463.031 158.66 462.365C158.615 461.032 158.563 459.145 158.505 456.778C158.39 452.047 158.252 445.419 158.1 437.526C157.797 421.743 157.44 400.916 157.098 380.134C156.757 359.352 156.43 338.615 156.19 323.013C156.069 315.212 155.97 308.695 155.901 304.097L155.884 302.976C155.858 301.201 155.837 299.768 155.821 298.721C155.812 298.091 155.805 297.602 155.801 297.262L155.795 296.867L155.794 296.758L155.794 296.722C155.794 295.79 155.354 294.838 154.73 294.137C154.079 293.407 153.075 292.781 151.808 292.781C150.46 292.781 149.563 293.487 149 294.225C148.61 294.735 148.298 295.391 148.104 295.797C148.057 295.895 148.017 295.978 147.985 296.041C147.9 296.208 147.865 296.357 147.857 296.392L147.856 296.395C147.843 296.453 147.834 296.504 147.829 296.537C147.818 296.605 147.81 296.673 147.804 296.73C147.792 296.848 147.781 296.997 147.77 297.167C147.748 297.51 147.723 297.993 147.697 298.602C147.643 299.822 147.58 301.577 147.508 303.791C147.364 308.219 147.186 314.5 146.984 322.035C146.58 337.105 146.082 357.203 145.585 377.558C145.448 383.183 145.311 388.826 145.175 394.387C144.33 429.106 143.563 460.64 143.35 464.613C143.114 469.004 141.579 474.184 138.388 478.23C135.236 482.226 130.439 485.166 123.47 485.166C112.279 485.166 106.685 480.652 103.803 475.99C100.848 471.21 100.609 466.046 100.609 464.693C100.609 463.79 100.657 437.729 100.722 401.706C100.763 379.417 100.81 353.315 100.858 326.999C100.982 258.151 101.106 187.835 101.106 180.509C101.106 166.953 93.3036 155.414 90.6559 151.498C90.3391 151.03 90.096 150.67 89.949 150.43C88.4328 147.948 17.3064 42.4295 15.3367 39.5277C14.5423 38.3572 13.2528 35.0328 13.5411 30.9543C13.8231 26.9669 15.6143 22.2425 20.9756 18.1215C26.1762 14.1241 31.9521 14.3047 36.7518 15.8569C39.1533 16.6336 41.2682 17.7441 42.8637 18.8008C43.6607 19.3286 44.3144 19.834 44.8004 20.2646C45.3134 20.7192 45.5596 21.0204 45.6279 21.1322C45.8622 21.5158 46.9049 22.9331 48.4705 25.0247C50.0719 27.1642 52.2922 30.1029 54.9577 33.6101C60.2891 40.6249 67.407 49.9208 74.9287 59.6589C89.9577 79.1166 106.642 100.397 113.886 108.738Z" stroke="#FA9600" stroke-width="3"/>
</svg>
