<svg width="548" height="234" viewBox="0 0 548 234" fill="none" xmlns="http://www.w3.org/2000/svg">
<circle cx="484" cy="74" r="34.5" stroke="#FA9600" stroke-width="3"/>
<path d="M504 173L448.486 167.584C445.182 167.262 442.708 164.325 442.796 161.007C443.266 143.252 442.565 98.7087 443 75.5C441.4 63.9 433 60.6671 429 60.5006C394.2 59.3006 344.833 76.334 324.5 85.0006C320.667 87.0005 311.9 91.0003 307.5 91.0003C268.5 90.5003 259 99.0003 253.5 101.5C249.1 103.5 227 108.334 216.5 110.5L53.5 133.5C39.1 135.1 32.5 141.5 31 144.5L30.5 190.5C32 194.834 37 203.2 45 202C53 200.8 59.3333 186.834 61.5 180L405 137.5C405.333 143.5 406 158.5 406 170.5C406 194.1 414 201.334 418 202L505 201C509 201.167 517 198.9 517 188.5C517 178.1 508.333 173.834 504 173Z" stroke="#FA9600" stroke-width="3" stroke-linejoin="round"/>
</svg>
