<svg width="308" height="500" viewBox="0 0 308 500" fill="none" xmlns="http://www.w3.org/2000/svg">
<circle cx="109.452" cy="55.1494" r="38.6494" stroke="#FA9600" stroke-width="3"/>
<path d="M272.131 111.058L85.0312 100.018C71.5507 101.412 67.4058 110.283 67.0184 114.544C67.9481 162.888 78.6395 210.612 83.8691 228.431C73.4101 263.875 75.1532 272.01 83.8691 291.766C90.8417 307.571 82.9006 414.562 78.0585 466.083C78.9882 480.493 89.2922 486.032 94.3281 487.001H145.461C151.271 484.676 158.825 478.285 157.663 469.569C156.427 460.296 137.714 454.074 130.354 451.556C138.256 379.505 146.042 275.109 148.947 231.917C154.525 199.378 152.821 158.704 151.271 142.435L274.455 141.854C279.297 141.079 288.982 136.973 288.982 126.746C288.982 116.52 277.748 112.026 272.131 111.058Z" stroke="#FA9600" stroke-width="3"/>
</svg>
