<svg width="548" height="234" viewBox="0 0 548 234" fill="none" xmlns="http://www.w3.org/2000/svg">
<circle cx="483" cy="186" r="34.5" stroke="#FA9600" stroke-width="3"/>
<path d="M433 44.5L443.5 202.5C444 205.5 438.5 216.605 431 217C408.832 218.167 343.271 208.556 311.621 202.968C309.878 202.66 308.108 202.634 306.362 202.921C292.824 205.145 270.114 209.621 263 207C255.4 204.2 242.5 202.833 237 202.5L49 207C40.2818 207.335 34.4682 200.198 31.7359 194.838C30.8046 193.01 30.5 190.952 30.5 188.901V153C30.5 145 37.5 138 45.5 139C52.5 139.875 60.6667 156.667 63 163.5C123.333 153.5 256.2 132.9 305 130.5C353.8 128.1 392 134.833 405 140.5V47C405.333 41.8333 408.4 31.5 418 31.5C427.6 31.5 432 40.1667 433 44.5Z" stroke="#FA9600" stroke-width="3" stroke-linejoin="round"/>
</svg>
