<svg width="548" height="234" viewBox="0 0 548 234" fill="none" xmlns="http://www.w3.org/2000/svg">
<circle cx="495.441" cy="66.5762" r="38.5" stroke="#FA9600" stroke-width="3"/>
<path d="M447.368 63.3146L447.368 188.376C447.368 198.896 438.84 207.425 428.32 207.425C417.799 207.425 409.271 198.897 409.271 188.376L409.271 135.247C409.271 126.845 401.535 120.574 393.315 122.312L50.2471 194.852C38.8568 199.452 15.4298 204.75 12.8439 189.142C10.258 173.534 25.9274 162.653 34.0853 159.164L209.344 104.999C212.228 104.108 214.891 102.632 217.263 100.765C244.917 78.9984 280.546 66.5123 295.446 63.0157L423.348 42.7938C435.96 40.7999 447.368 50.5466 447.368 63.3146Z" stroke="#FA9600" stroke-width="3"/>
</svg>
